HIERARCHY
ROOT SpineBase
{
  OFFSET 0.000000 0.000000 0.000000
  CHANNELS 6 Xposition Yposition Zposition Zrotation Xrotation Yrotation
  JOINT SpineMid
  {
    OFFSET 0.000000 22.882846 0.000000
    CHANNELS 3 Zrotation Xrotation Yrotation
    JOINT SpineShoulder
    {
      OFFSET -0.086985 17.001806 -0.427426
      CHANNELS 3 Zrotation Xrotation Yrotation
      JOINT Neck
      {
        OFFSET -0.081353 5.653031 -0.344079
        CHANNELS 3 Zrotation Xrotation Yrotation
        JOINT Head
        {
          OFFSET 0.959303 9.173045 -0.284698
          CHANNELS 3 Zrotation Xrotation Yrotation
          End Site
          {
            OFFSET 0 0 0
          }
        }
      }
      JOINT ShoulderLeft
      {
        OFFSET -11.112417 -0.409519 2.690177
        CHANNELS 3 Zrotation Xrotation Yrotation
        JOINT ElbowLeft
        {
          OFFSET -2.371188 -17.680886 -3.602692
          CHANNELS 3 Zrotation Xrotation Yrotation
          JOINT WristLeft
          {
            OFFSET -0.887217 -17.510759 -3.856768
            CHANNELS 3 Zrotation Xrotation Yrotation
            JOINT HandLeft
            {
              OFFSET 0.504715 -4.893009 -0.722343
              CHANNELS 3 Zrotation Xrotation Yrotation
              JOINT HandTipLeft
              {
                OFFSET -0.967222 -6.577813 -0.967523
                CHANNELS 3 Zrotation Xrotation Yrotation
                End Site
                {
                  OFFSET 0 0 0
                }
              }
              JOINT ThumbLeft
              {
                OFFSET 1.728137 -1.840805 -1.766314
                CHANNELS 3 Zrotation Xrotation Yrotation
                End Site
                {
                  OFFSET 0 0 0
                }
              }
            }
          }
        }
      }
      JOINT ShoulderRight
      {
        OFFSET 12.678686 -5.306987 -4.671476
        CHANNELS 3 Zrotation Xrotation Yrotation
        JOINT ElbowRight
        {
          OFFSET 0.945041 -17.888437 -2.119457
          CHANNELS 3 Zrotation Xrotation Yrotation
          JOINT WristRight
          {
            OFFSET -3.227035 -17.430294 -4.042833
            CHANNELS 3 Zrotation Xrotation Yrotation
            JOINT HandRight
            {
              OFFSET 0.436374 -6.566160 -0.404807
              CHANNELS 3 Zrotation Xrotation Yrotation
              JOINT HandTipRight
              {
                OFFSET -2.067400 -5.223099 -1.559497
                CHANNELS 3 Zrotation Xrotation Yrotation
                End Site
                {
                  OFFSET 0 0 0
                }
              }
              JOINT ThumbRight
              {
                OFFSET -2.622713 -2.092572 -1.992625
                CHANNELS 3 Zrotation Xrotation Yrotation
                End Site
                {
                  OFFSET 0 0 0
                }
              }
            }
          }
        }
      }
    }
  }
  JOINT HipLeft
  {
    OFFSET -3.965271 0.795610 -1.376937
    CHANNELS 3 Zrotation Xrotation Yrotation
    JOINT KneeLeft
    {
      OFFSET -2.228542 -26.984044 3.442896
      CHANNELS 3 Zrotation Xrotation Yrotation
      JOINT AnkleLeft
      {
        OFFSET -5.881102 -25.433030 14.003210
        CHANNELS 3 Zrotation Xrotation Yrotation
        JOINT FootLeft
        {
          OFFSET -2.599611 -3.249029 -8.851021
          CHANNELS 3 Zrotation Xrotation Yrotation
          End Site
          {
            OFFSET 0 0 0
          }
        }
      }
    }
  }
  JOINT HipRight
  {
    OFFSET 2.837318 0.067685 -3.527038
    CHANNELS 3 Zrotation Xrotation Yrotation
    JOINT KneeRight
    {
      OFFSET 0.280226 -27.623899 -0.187378
      CHANNELS 3 Zrotation Xrotation Yrotation
      JOINT AnkleRight
      {
        OFFSET 1.237572 -25.139634 11.079466
        CHANNELS 3 Zrotation Xrotation Yrotation
        JOINT FootRight
        {
          OFFSET -2.699555 -3.235450 -8.824965
          CHANNELS 3 Zrotation Xrotation Yrotation
          End Site
          {
            OFFSET 0 0 0
          }
        }
      }
    }
  }
}
MOTION
Frames: 5
Frame Time: 0.033333
92.298762 66.789854 389.504059 -0.000000 0.000000 17.540240 -0.000000 0.000000 -17.540240 -0.000000 0.000000 0.000000 -0.000000 0.000000 0.000000 0.000000 0.000000 0.000000 -0.000000 0.000000 0.000000 -0.000000 0.000000 0.000000 -0.000000 0.000000 0.000000 -0.000000 0.000000 0.000000 0.000000 0.000000 0.000000 0.000000 0.000000 0.000000 -0.000000 0.000000 0.000000 -0.000000 0.000000 0.000000 -0.000000 0.000000 0.000000 -0.000000 0.000000 0.000000 0.000000 0.000000 0.000000 0.000000 0.000000 0.000000 -0.000000 0.000000 -17.540240 -0.000000 0.000000 0.000000 -0.000000 0.000000 0.000000 0.000000 0.000000 0.000000 -0.000000 0.000000 -17.540240 -0.000000 0.000000 0.000000 -0.000000 0.000000 0.000000 0.000000 0.000000 0.000000
92.631238 66.701678 389.500637 0.302785 -0.002401 17.970627 -0.287273 0.095702 -17.970381 -0.000000 0.000000 0.000000 -0.000000 0.000000 0.000000 0.000000 0.000000 0.000000 0.360308 0.783259 -0.180749 -1.070055 -1.438111 0.352478 2.868947 0.447117 -0.552530 -2.154499 0.181666 0.340836 0.000000 0.000000 0.000000 0.000000 0.000000 0.000000 -0.000000 0.000000 0.000000 0.985049 -1.076187 -0.020054 -3.614945 0.097437 0.163007 3.482138 1.364325 -0.547935 0.000000 0.000000 0.000000 0.000000 0.000000 0.000000 -0.287273 0.095702 -17.970381 -0.783172 -0.719710 -0.268354 0.779855 0.723304 0.258512 0.000000 0.000000 0.000000 -1.492964 -0.830136 -17.984976 0.861131 1.252736 -0.002547 -0.000000 0.000000 0.000000 0.000000 0.000000 0.000000
92.942079 66.627161 389.497365 0.584127 -0.015847 18.250712 -0.549783 0.197980 -18.249682 -0.000000 0.000000 0.000000 -0.000000 0.000000 0.000000 0.000000 0.000000 0.000000 0.676252 1.466283 -0.342481 -2.026050 -2.638286 0.636336 5.217427 0.677738 -1.047819 -4.715538 -0.452488 0.879029 0.000000 0.000000 0.000000 0.000000 0.000000 0.000000 0.846620 -0.423304 -0.119552 1.044126 -1.579225 0.077971 -6.483288 0.394486 0.374205 6.216162 2.293589 -1.065188 0.000000 0.000000 0.000000 0.000000 0.000000 0.000000 -0.549783 0.197980 -18.249682 -1.496339 -1.263163 -0.543367 1.484662 1.276868 0.510327 0.000000 0.000000 0.000000 -2.762315 -1.451653 -18.286075 1.584522 2.259703 -0.019070 -0.000000 0.000000 0.000000 0.000000 0.000000 0.000000
93.231284 66.566305 389.494242 0.844250 -0.040303 18.381162 -0.788476 0.304457 -18.378770 -0.000000 0.000000 0.000000 0.234647 0.793763 -0.077388 0.000000 0.000000 0.000000 0.947140 2.049633 -0.483615 -2.876327 -3.603080 0.863082 7.246767 0.695302 -1.493581 -6.566426 -0.271279 1.219126 0.000000 0.000000 0.000000 0.000000 0.000000 0.000000 1.236939 -0.613345 -0.172354 1.474161 -2.164355 0.109483 -8.838042 0.786108 0.618669 8.430402 2.893049 -1.522599 0.000000 0.000000 0.000000 0.000000 0.000000 0.000000 -0.788476 0.304457 -18.378770 -2.138025 -1.628181 -0.821192 2.115359 1.657528 0.760205 0.000000 0.000000 0.000000 -3.796664 -1.875089 -18.435939 2.167685 3.017004 -0.041169 -0.000000 0.000000 0.000000 0.000000 0.000000 0.000000
93.498854 66.519109 389.491269 1.083359 -0.075747 18.363300 -0.264213 -0.117863 -18.340393 -0.869633 0.271156 -0.018420 0.227965 1.123947 -0.112763 0.000000 0.000000 0.000000 1.172396 2.533939 -0.602816 -3.627389 -4.334176 1.042346 9.087617 0.490255 -1.895261 -8.251007 0.293978 1.514744 0.000000 0.000000 0.000000 0.000000 0.000000 0.000000 1.605119 -0.788771 -0.220828 1.839265 -2.610324 0.130702 -10.819514 1.217795 0.883077 10.260729 3.219347 -1.905730 0.000000 0.000000 0.000000 0.000000 0.000000 0.000000 -1.004349 0.413163 -18.358963 -2.706536 -1.812056 -1.098629 2.672713 1.861602 1.012387 0.000000 0.000000 0.000000 -4.589204 -2.108629 -18.430105 2.608812 3.522557 -0.062161 -0.000000 0.000000 0.000000 0.000000 0.000000 0.000000
